<svg width="41" height="53" viewBox="0 0 41 53" fill="none" xmlns="http://www.w3.org/2000/svg">
<path d="M40.7501 43.6441C36.7978 39.1815 34.7945 33.8998 34.7945 27.9455V19.2785C34.831 12.6709 30.9203 8.28824 27.56 6.54309C26.6126 6.05164 25.6144 5.68738 24.5966 5.40793V4.81818C24.5966 2.16144 22.6943 0 20.356 0C18.0177 0 16.1153 2.16144 16.1153 4.81818V5.49851C15.2002 5.77122 14.3012 6.10464 13.4471 6.55176C9.73315 8.49638 5.97085 13.1835 5.93693 19.2727V27.9455C5.93693 34.1012 4.02355 39.3829 0.250217 43.6441C0.0254628 43.8985 -0.0559577 44.2733 0.0390328 44.6173C0.134023 44.9604 0.391007 45.2157 0.703966 45.2774L8.75356 46.8568C10.2717 47.1546 11.6499 47.3926 12.9467 47.5873C14.4267 50.8839 17.3332 53 20.5103 53C23.6883 53 26.5957 50.8819 28.0748 47.5834C29.3657 47.3897 30.7371 47.1527 32.2468 46.8559L40.2955 45.2765C40.6085 45.2157 40.8646 44.9604 40.9604 44.6164C41.0563 44.2733 40.9749 43.8985 40.7501 43.6441ZM17.8107 4.81818C17.8107 3.22433 18.9523 1.92727 20.3551 1.92727C21.7579 1.92727 22.8995 3.22433 22.8995 4.81818V5.00416C21.2092 4.73242 19.4866 4.74784 17.8107 5.05235V4.81818ZM11.0257 20.2364C11.024 20.2364 11.0223 20.2364 11.0206 20.2364C10.5524 20.2325 10.175 19.7989 10.1776 19.2669C10.203 14.7552 13.3598 11.9019 15.2222 10.9276C18.4867 9.21718 22.5111 9.22007 25.7976 10.9257C26.2233 11.1464 26.4108 11.7178 26.2166 12.2025C26.0215 12.6863 25.5185 12.9002 25.0919 12.6776C22.2482 11.2003 18.7573 11.1965 15.933 12.6776C14.4343 13.462 11.8942 15.7352 11.8747 19.2785C11.8713 19.8095 11.4922 20.2364 11.0257 20.2364ZM25.9579 47.8715C24.6696 49.8576 22.6603 51.0727 20.5103 51.0727C18.3612 51.0727 16.3528 49.8585 15.0645 47.8735C15.4004 47.913 15.7269 47.9438 16.0526 47.9756C16.2078 47.991 16.3672 48.0093 16.5207 48.0238C16.6395 48.0344 16.754 48.0411 16.8719 48.0508C19.3365 48.2551 21.6061 48.2551 24.0691 48.0556C24.2107 48.044 24.349 48.0353 24.4923 48.0228C24.6772 48.0064 24.8689 47.9843 25.0563 47.966C25.3438 47.9371 25.6296 47.9101 25.9256 47.8754C25.9358 47.8735 25.9468 47.8725 25.9579 47.8715Z" fill="#0072C5"/>
</svg>
