<svg width="1318" height="507" viewBox="0 0 1318 507" fill="none" xmlns="http://www.w3.org/2000/svg">
<mask id="mask0_6_52" style="mask-type:luminance" maskUnits="userSpaceOnUse" x="0" y="0" width="453" height="507">
<path d="M452.143 0H0V506.214H452.143V0Z" fill="white"/>
</mask>
<g mask="url(#mask0_6_52)">
<path d="M43.2498 323.43V343.435C43.2514 347.683 44.2792 351.867 46.2457 355.633C48.2123 359.401 51.0592 362.634 54.5443 365.064L133.833 285.773L111.851 263.791C111.263 263.204 110.565 262.737 109.797 262.419C109.028 262.1 108.205 261.937 107.373 261.937C106.541 261.937 105.718 262.1 104.95 262.419C104.181 262.737 103.483 263.204 102.895 263.791L43.2498 323.43Z" fill="url(#paint0_linear_6_52)"/>
<path d="M107.366 237.836C110.024 237.829 112.657 238.348 115.113 239.368C117.568 240.385 119.798 241.879 121.671 243.763L148.748 270.84L204.341 215.247C210.107 209.49 217.922 206.257 226.071 206.257C234.218 206.257 242.034 209.49 247.8 215.247L325.1 292.547L348.991 268.656C352.788 264.867 357.931 262.74 363.296 262.74C368.659 262.74 373.803 264.867 377.599 268.656L408.894 299.976V162.791C408.894 158.159 407.674 153.608 405.355 149.597C403.039 145.585 399.708 142.254 395.697 139.938L239.265 49.6205C235.254 47.304 230.701 46.0844 226.068 46.0844C221.435 46.0844 216.884 47.304 212.871 49.6205L56.4374 139.938C52.4258 142.254 49.0942 145.585 46.7777 149.597C44.4612 153.608 43.2414 158.159 43.2405 162.791V293.573L93.0523 243.761C94.9274 241.875 97.1584 240.38 99.6153 239.365C102.072 238.348 104.707 237.827 107.366 237.836Z" fill="url(#paint1_linear_6_52)"/>
<path d="M340.024 307.484L397.59 365.062C401.076 362.631 403.922 359.396 405.888 355.63C407.854 351.865 408.88 347.68 408.882 343.432V329.826L367.756 288.699C366.568 287.511 364.957 286.845 363.278 286.845C361.596 286.845 359.985 287.511 358.798 288.699L340.024 307.484Z" fill="url(#paint2_linear_6_52)"/>
<path d="M325.095 322.406L310.171 307.484L232.871 230.187C231.067 228.384 228.623 227.374 226.074 227.374C223.525 227.374 221.08 228.384 219.276 230.187L163.683 285.78L148.757 300.706L73.3909 376.063L212.869 456.596C216.881 458.912 221.433 460.132 226.066 460.132C230.699 460.132 235.251 458.912 239.263 456.596L378.741 376.063L325.095 322.406Z" fill="url(#paint3_linear_6_52)"/>
</g>
<g filter="url(#filter0_b_6_52)">
<path d="M506.167 285.383C500.887 285.383 496.127 284.503 491.887 282.743C487.647 280.903 484.247 277.983 481.687 273.983C479.207 269.903 477.967 264.503 477.967 257.783V224.543C477.967 217.823 479.207 212.463 481.687 208.463C484.247 204.383 487.607 201.463 491.767 199.703C496.007 197.863 500.647 196.943 505.687 196.943C511.287 196.943 516.207 197.863 520.447 199.703C524.767 201.543 528.167 204.183 530.647 207.623C533.127 211.063 534.367 215.183 534.367 219.983C534.367 222.943 533.727 224.943 532.447 225.983C531.167 226.943 529.207 227.423 526.567 227.423C524.487 227.423 522.687 227.063 521.167 226.343C519.647 225.623 518.847 224.343 518.767 222.503C518.687 220.583 518.287 218.743 517.567 216.983C516.927 215.143 515.727 213.623 513.967 212.423C512.287 211.223 509.687 210.623 506.167 210.623C502.247 210.623 499.167 211.783 496.927 214.103C494.767 216.343 493.687 219.823 493.687 224.543V257.783C493.687 262.503 494.767 266.023 496.927 268.343C499.167 270.583 502.247 271.703 506.167 271.703C510.087 271.703 513.167 270.583 515.407 268.343C517.647 266.023 518.767 262.503 518.767 257.783V250.823H509.047C507.527 250.823 506.327 250.183 505.447 248.903C504.647 247.623 504.247 246.223 504.247 244.703C504.247 243.183 504.647 241.783 505.447 240.503C506.327 239.223 507.527 238.583 509.047 238.583H529.447C531.047 238.583 532.247 239.103 533.047 240.143C533.927 241.103 534.367 242.303 534.367 243.743V257.783C534.367 264.503 533.127 269.903 530.647 273.983C528.167 277.983 524.767 280.903 520.447 282.743C516.207 284.503 511.447 285.383 506.167 285.383ZM553.501 284.663C551.821 284.663 550.261 284.263 548.821 283.463C547.381 282.583 546.661 281.303 546.661 279.623V201.863C546.661 200.103 547.461 198.863 549.061 198.143C550.741 197.343 552.541 196.943 554.461 196.943C556.461 196.943 558.261 197.343 559.861 198.143C561.461 198.863 562.261 200.103 562.261 201.863V270.983H591.661C593.261 270.983 594.421 271.703 595.141 273.143C595.861 274.503 596.221 276.063 596.221 277.823C596.221 279.503 595.861 281.063 595.141 282.503C594.421 283.943 593.261 284.663 591.661 284.663H553.501ZM630.268 285.383C624.988 285.383 620.228 284.503 615.988 282.743C611.748 280.903 608.348 277.983 605.788 273.983C603.308 269.903 602.068 264.503 602.068 257.783V224.543C602.068 217.823 603.308 212.463 605.788 208.463C608.348 204.383 611.708 201.463 615.868 199.703C620.108 197.863 624.908 196.943 630.268 196.943C635.548 196.943 640.308 197.863 644.548 199.703C648.868 201.463 652.268 204.383 654.748 208.463C657.228 212.463 658.468 217.823 658.468 224.543V257.783C658.468 264.503 657.228 269.903 654.748 273.983C652.268 277.983 648.868 280.903 644.548 282.743C640.308 284.503 635.548 285.383 630.268 285.383ZM630.268 271.703C634.188 271.703 637.268 270.583 639.508 268.343C641.748 266.103 642.868 262.583 642.868 257.783V224.543C642.868 219.743 641.748 216.223 639.508 213.983C637.268 211.743 634.188 210.623 630.268 210.623C626.348 210.623 623.268 211.743 621.028 213.983C618.868 216.223 617.788 219.743 617.788 224.543V257.783C617.788 262.583 618.868 266.103 621.028 268.343C623.268 270.583 626.348 271.703 630.268 271.703ZM678.775 284.663C676.695 284.663 675.015 284.183 673.735 283.223C672.535 282.263 671.935 281.103 671.935 279.743V201.983C671.935 200.303 672.655 199.063 674.095 198.263C675.535 197.383 677.095 196.943 678.775 196.943H702.055C706.135 196.943 710.015 197.543 713.695 198.743C717.375 199.863 720.375 201.943 722.695 204.983C725.015 208.023 726.175 212.383 726.175 218.063C726.175 222.943 725.255 227.023 723.415 230.303C721.575 233.503 719.095 235.783 715.975 237.143C718.455 238.023 720.615 239.263 722.455 240.863C724.295 242.383 725.735 244.423 726.775 246.983C727.815 249.463 728.335 252.703 728.335 256.703V259.223C728.335 265.463 727.255 270.463 725.095 274.223C723.015 277.903 720.135 280.583 716.455 282.263C712.855 283.863 708.815 284.663 704.335 284.663H678.775ZM687.535 270.983H700.975C704.655 270.983 707.535 269.943 709.615 267.863C711.695 265.783 712.735 262.463 712.735 257.903V255.983C712.735 251.263 711.695 247.983 709.615 246.143C707.535 244.223 704.655 243.263 700.975 243.263H687.535V270.983ZM687.535 231.023H700.975C704.255 231.023 706.655 230.063 708.175 228.143C709.775 226.223 710.575 223.743 710.575 220.703C710.575 218.543 710.175 216.743 709.375 215.303C708.575 213.783 707.455 212.623 706.015 211.823C704.575 211.023 702.855 210.623 700.855 210.623H687.535V231.023ZM743.037 284.663C741.597 284.663 740.117 284.383 738.597 283.823C737.077 283.263 735.797 282.503 734.757 281.543C733.717 280.583 733.197 279.463 733.197 278.183C733.197 277.943 733.237 277.543 733.317 276.983L756.477 201.503C757.037 199.743 758.277 198.423 760.197 197.543C762.197 196.663 764.317 196.223 766.557 196.223C768.877 196.223 770.997 196.663 772.917 197.543C774.837 198.423 776.077 199.743 776.637 201.503L799.797 276.983C799.957 277.543 800.037 277.943 800.037 278.183C800.037 279.383 799.477 280.503 798.357 281.543C797.317 282.503 796.037 283.263 794.517 283.823C792.997 284.383 791.517 284.663 790.077 284.663C788.797 284.663 787.677 284.463 786.717 284.063C785.837 283.583 785.237 282.743 784.917 281.543L780.357 265.583H752.757L748.317 281.543C747.997 282.743 747.357 283.583 746.397 284.063C745.437 284.463 744.317 284.663 743.037 284.663ZM756.117 253.343H776.997L766.557 216.503L756.117 253.343ZM815.064 284.663C813.384 284.663 811.824 284.263 810.384 283.463C808.944 282.583 808.224 281.303 808.224 279.623V201.863C808.224 200.103 809.024 198.863 810.624 198.143C812.304 197.343 814.104 196.943 816.024 196.943C818.024 196.943 819.824 197.343 821.424 198.143C823.024 198.863 823.824 200.103 823.824 201.863V270.983H853.224C854.824 270.983 855.984 271.703 856.704 273.143C857.424 274.503 857.784 276.063 857.784 277.823C857.784 279.503 857.424 281.063 856.704 282.503C855.984 283.943 854.824 284.663 853.224 284.663H815.064Z" fill="#00709E"/>
<path d="M874.031 284.663C872.111 284.663 870.311 284.263 868.631 283.463C867.031 282.583 866.231 281.303 866.231 279.623V201.863C866.231 200.183 867.031 198.943 868.631 198.143C870.311 197.343 872.111 196.943 874.031 196.943C875.951 196.943 877.511 197.143 878.711 197.543C879.991 197.943 881.151 198.743 882.191 199.943C883.311 201.063 884.471 202.823 885.671 205.223L908.831 249.983V201.863C908.831 200.103 909.631 198.863 911.231 198.143C912.911 197.343 914.711 196.943 916.631 196.943C918.631 196.943 920.431 197.343 922.031 198.143C923.631 198.863 924.431 200.103 924.431 201.863V279.623C924.431 281.303 923.631 282.583 922.031 283.463C920.431 284.263 918.631 284.663 916.631 284.663C914.791 284.663 913.071 284.303 911.471 283.583C909.951 282.863 908.711 281.583 907.751 279.743L881.831 231.503V279.623C881.831 281.303 881.031 282.583 879.431 283.463C877.831 284.263 876.031 284.663 874.031 284.663ZM966.245 285.383C960.965 285.383 956.205 284.503 951.965 282.743C947.725 280.903 944.325 277.983 941.765 273.983C939.285 269.903 938.045 264.503 938.045 257.783V224.543C938.045 217.823 939.285 212.463 941.765 208.463C944.325 204.383 947.685 201.463 951.845 199.703C956.085 197.863 960.885 196.943 966.245 196.943C971.525 196.943 976.285 197.863 980.525 199.703C984.845 201.463 988.245 204.383 990.725 208.463C993.205 212.463 994.445 217.823 994.445 224.543V257.783C994.445 264.503 993.205 269.903 990.725 273.983C988.245 277.983 984.845 280.903 980.525 282.743C976.285 284.503 971.525 285.383 966.245 285.383ZM966.245 271.703C970.165 271.703 973.245 270.583 975.485 268.343C977.725 266.103 978.845 262.583 978.845 257.783V224.543C978.845 219.743 977.725 216.223 975.485 213.983C973.245 211.743 970.165 210.623 966.245 210.623C962.325 210.623 959.245 211.743 957.005 213.983C954.845 216.223 953.765 219.743 953.765 224.543V257.783C953.765 262.583 954.845 266.103 957.005 268.343C959.245 270.583 962.325 271.703 966.245 271.703ZM1015.71 284.663C1013.79 284.663 1011.99 284.263 1010.31 283.463C1008.71 282.583 1007.91 281.303 1007.91 279.623V204.743C1007.91 201.863 1008.71 199.863 1010.31 198.743C1011.99 197.543 1013.79 196.943 1015.71 196.943C1017.63 196.943 1019.23 197.143 1020.51 197.543C1021.87 197.943 1023.11 198.743 1024.23 199.943C1025.43 201.143 1026.67 202.903 1027.95 205.223L1042.71 232.103L1057.35 205.223C1058.79 202.903 1060.03 201.143 1061.07 199.943C1062.19 198.743 1063.43 197.943 1064.79 197.543C1066.15 197.143 1067.75 196.943 1069.59 196.943C1071.59 196.943 1073.39 197.543 1074.99 198.743C1076.59 199.863 1077.39 201.863 1077.39 204.743V279.623C1077.39 281.303 1076.55 282.583 1074.87 283.463C1073.27 284.263 1071.51 284.663 1069.59 284.663C1067.67 284.663 1065.87 284.263 1064.19 283.463C1062.59 282.583 1061.79 281.303 1061.79 279.623V228.143L1047.87 253.103C1047.15 254.223 1046.31 255.063 1045.35 255.623C1044.39 256.103 1043.43 256.343 1042.47 256.343C1041.59 256.343 1040.67 256.103 1039.71 255.623C1038.83 255.143 1038.03 254.303 1037.31 253.103L1023.51 227.303V279.623C1023.51 281.303 1022.71 282.583 1021.11 283.463C1019.51 284.263 1017.71 284.663 1015.71 284.663ZM1095.54 284.663C1094.1 284.663 1092.62 284.383 1091.1 283.823C1089.58 283.263 1088.3 282.503 1087.26 281.543C1086.22 280.583 1085.7 279.463 1085.7 278.183C1085.7 277.943 1085.74 277.543 1085.82 276.983L1108.98 201.503C1109.54 199.743 1110.78 198.423 1112.7 197.543C1114.7 196.663 1116.82 196.223 1119.06 196.223C1121.38 196.223 1123.5 196.663 1125.42 197.543C1127.34 198.423 1128.58 199.743 1129.14 201.503L1152.3 276.983C1152.46 277.543 1152.54 277.943 1152.54 278.183C1152.54 279.383 1151.98 280.503 1150.86 281.543C1149.82 282.503 1148.54 283.263 1147.02 283.823C1145.5 284.383 1144.02 284.663 1142.58 284.663C1141.3 284.663 1140.18 284.463 1139.22 284.063C1138.34 283.583 1137.74 282.743 1137.42 281.543L1132.86 265.583H1105.26L1100.82 281.543C1100.5 282.743 1099.86 283.583 1098.9 284.063C1097.94 284.463 1096.82 284.663 1095.54 284.663ZM1108.62 253.343H1129.5L1119.06 216.503L1108.62 253.343ZM1167.56 284.663C1165.48 284.663 1163.8 284.183 1162.52 283.223C1161.32 282.263 1160.72 281.103 1160.72 279.743V201.863C1160.72 200.503 1161.32 199.343 1162.52 198.383C1163.8 197.423 1165.48 196.943 1167.56 196.943H1188.8C1194.16 196.943 1198.96 197.863 1203.2 199.703C1207.44 201.463 1210.8 204.383 1213.28 208.463C1215.84 212.463 1217.12 217.823 1217.12 224.543V257.063C1217.12 263.783 1215.84 269.183 1213.28 273.263C1210.8 277.263 1207.44 280.183 1203.2 282.023C1198.96 283.783 1194.16 284.663 1188.8 284.663H1167.56ZM1176.32 270.983H1188.8C1192.8 270.983 1195.92 269.863 1198.16 267.623C1200.4 265.303 1201.52 261.783 1201.52 257.063V224.543C1201.52 219.823 1200.4 216.343 1198.16 214.103C1195.92 211.783 1192.84 210.623 1188.92 210.623H1176.32V270.983Z" fill="#00709E"/>
<path d="M874.031 284.663C872.111 284.663 870.311 284.263 868.631 283.463C867.031 282.583 866.231 281.303 866.231 279.623V201.863C866.231 200.183 867.031 198.943 868.631 198.143C870.311 197.343 872.111 196.943 874.031 196.943C875.951 196.943 877.511 197.143 878.711 197.543C879.991 197.943 881.151 198.743 882.191 199.943C883.311 201.063 884.471 202.823 885.671 205.223L908.831 249.983V201.863C908.831 200.103 909.631 198.863 911.231 198.143C912.911 197.343 914.711 196.943 916.631 196.943C918.631 196.943 920.431 197.343 922.031 198.143C923.631 198.863 924.431 200.103 924.431 201.863V279.623C924.431 281.303 923.631 282.583 922.031 283.463C920.431 284.263 918.631 284.663 916.631 284.663C914.791 284.663 913.071 284.303 911.471 283.583C909.951 282.863 908.711 281.583 907.751 279.743L881.831 231.503V279.623C881.831 281.303 881.031 282.583 879.431 283.463C877.831 284.263 876.031 284.663 874.031 284.663ZM966.245 285.383C960.965 285.383 956.205 284.503 951.965 282.743C947.725 280.903 944.325 277.983 941.765 273.983C939.285 269.903 938.045 264.503 938.045 257.783V224.543C938.045 217.823 939.285 212.463 941.765 208.463C944.325 204.383 947.685 201.463 951.845 199.703C956.085 197.863 960.885 196.943 966.245 196.943C971.525 196.943 976.285 197.863 980.525 199.703C984.845 201.463 988.245 204.383 990.725 208.463C993.205 212.463 994.445 217.823 994.445 224.543V257.783C994.445 264.503 993.205 269.903 990.725 273.983C988.245 277.983 984.845 280.903 980.525 282.743C976.285 284.503 971.525 285.383 966.245 285.383ZM966.245 271.703C970.165 271.703 973.245 270.583 975.485 268.343C977.725 266.103 978.845 262.583 978.845 257.783V224.543C978.845 219.743 977.725 216.223 975.485 213.983C973.245 211.743 970.165 210.623 966.245 210.623C962.325 210.623 959.245 211.743 957.005 213.983C954.845 216.223 953.765 219.743 953.765 224.543V257.783C953.765 262.583 954.845 266.103 957.005 268.343C959.245 270.583 962.325 271.703 966.245 271.703ZM1015.71 284.663C1013.79 284.663 1011.99 284.263 1010.31 283.463C1008.71 282.583 1007.91 281.303 1007.91 279.623V204.743C1007.91 201.863 1008.71 199.863 1010.31 198.743C1011.99 197.543 1013.79 196.943 1015.71 196.943C1017.63 196.943 1019.23 197.143 1020.51 197.543C1021.87 197.943 1023.11 198.743 1024.23 199.943C1025.43 201.143 1026.67 202.903 1027.95 205.223L1042.71 232.103L1057.35 205.223C1058.79 202.903 1060.03 201.143 1061.07 199.943C1062.19 198.743 1063.43 197.943 1064.79 197.543C1066.15 197.143 1067.75 196.943 1069.59 196.943C1071.59 196.943 1073.39 197.543 1074.99 198.743C1076.59 199.863 1077.39 201.863 1077.39 204.743V279.623C1077.39 281.303 1076.55 282.583 1074.87 283.463C1073.27 284.263 1071.51 284.663 1069.59 284.663C1067.67 284.663 1065.87 284.263 1064.19 283.463C1062.59 282.583 1061.79 281.303 1061.79 279.623V228.143L1047.87 253.103C1047.15 254.223 1046.31 255.063 1045.35 255.623C1044.39 256.103 1043.43 256.343 1042.47 256.343C1041.59 256.343 1040.67 256.103 1039.71 255.623C1038.83 255.143 1038.03 254.303 1037.31 253.103L1023.51 227.303V279.623C1023.51 281.303 1022.71 282.583 1021.11 283.463C1019.51 284.263 1017.71 284.663 1015.71 284.663ZM1095.54 284.663C1094.1 284.663 1092.62 284.383 1091.1 283.823C1089.58 283.263 1088.3 282.503 1087.26 281.543C1086.22 280.583 1085.7 279.463 1085.7 278.183C1085.7 277.943 1085.74 277.543 1085.82 276.983L1108.98 201.503C1109.54 199.743 1110.78 198.423 1112.7 197.543C1114.7 196.663 1116.82 196.223 1119.06 196.223C1121.38 196.223 1123.5 196.663 1125.42 197.543C1127.34 198.423 1128.58 199.743 1129.14 201.503L1152.3 276.983C1152.46 277.543 1152.54 277.943 1152.54 278.183C1152.54 279.383 1151.98 280.503 1150.86 281.543C1149.82 282.503 1148.54 283.263 1147.02 283.823C1145.5 284.383 1144.02 284.663 1142.58 284.663C1141.3 284.663 1140.18 284.463 1139.22 284.063C1138.34 283.583 1137.74 282.743 1137.42 281.543L1132.86 265.583H1105.26L1100.82 281.543C1100.5 282.743 1099.86 283.583 1098.9 284.063C1097.94 284.463 1096.82 284.663 1095.54 284.663ZM1108.62 253.343H1129.5L1119.06 216.503L1108.62 253.343ZM1167.56 284.663C1165.48 284.663 1163.8 284.183 1162.52 283.223C1161.32 282.263 1160.72 281.103 1160.72 279.743V201.863C1160.72 200.503 1161.32 199.343 1162.52 198.383C1163.8 197.423 1165.48 196.943 1167.56 196.943H1188.8C1194.16 196.943 1198.96 197.863 1203.2 199.703C1207.44 201.463 1210.8 204.383 1213.28 208.463C1215.84 212.463 1217.12 217.823 1217.12 224.543V257.063C1217.12 263.783 1215.84 269.183 1213.28 273.263C1210.8 277.263 1207.44 280.183 1203.2 282.023C1198.96 283.783 1194.16 284.663 1188.8 284.663H1167.56ZM1176.32 270.983H1188.8C1192.8 270.983 1195.92 269.863 1198.16 267.623C1200.4 265.303 1201.52 261.783 1201.52 257.063V224.543C1201.52 219.823 1200.4 216.343 1198.16 214.103C1195.92 211.783 1192.84 210.623 1188.92 210.623H1176.32V270.983Z" fill="#F77F00" fill-opacity="0.75"/>
</g>
<path d="M468.789 349.582C468.256 349.582 467.763 349.475 467.309 349.262C466.883 349.022 466.669 348.662 466.669 348.182V321.742C466.669 321.288 466.869 320.942 467.269 320.702C467.669 320.462 468.096 320.342 468.549 320.342H482.589C483.069 320.342 483.416 320.542 483.629 320.942C483.843 321.342 483.949 321.755 483.949 322.182C483.949 322.688 483.829 323.142 483.589 323.542C483.376 323.915 483.043 324.102 482.589 324.102H470.909V333.262H477.109C477.563 333.262 477.896 333.435 478.109 333.782C478.349 334.128 478.469 334.528 478.469 334.982C478.469 335.355 478.363 335.728 478.149 336.102C477.936 336.448 477.589 336.622 477.109 336.622H470.909V348.182C470.909 348.662 470.683 349.022 470.229 349.262C469.803 349.475 469.323 349.582 468.789 349.582ZM502.585 349.702C502.239 349.702 501.919 349.582 501.625 349.342C501.359 349.102 501.132 348.808 500.945 348.462L495.065 337.022H491.065V348.182C491.065 348.635 490.839 348.982 490.385 349.222C489.959 349.462 489.479 349.582 488.945 349.582C488.412 349.582 487.919 349.462 487.465 349.222C487.039 348.982 486.825 348.635 486.825 348.182V321.702C486.825 321.328 486.945 321.008 487.185 320.742C487.452 320.475 487.812 320.342 488.265 320.342H495.865C497.545 320.342 499.079 320.595 500.465 321.102C501.852 321.582 502.959 322.422 503.785 323.622C504.612 324.795 505.025 326.422 505.025 328.502C505.025 330.102 504.772 331.435 504.265 332.502C503.785 333.568 503.119 334.422 502.265 335.062C501.439 335.675 500.492 336.128 499.425 336.422L505.025 346.942C505.079 347.022 505.119 347.128 505.145 347.262C505.172 347.368 505.185 347.462 505.185 347.542C505.185 347.888 505.052 348.235 504.785 348.582C504.519 348.902 504.185 349.168 503.785 349.382C503.412 349.595 503.012 349.702 502.585 349.702ZM491.065 333.622H495.865C497.359 333.622 498.545 333.262 499.425 332.542C500.332 331.822 500.785 330.595 500.785 328.862C500.785 327.128 500.332 325.902 499.425 325.182C498.545 324.462 497.359 324.102 495.865 324.102H491.065V333.622ZM517.615 349.822C515.908 349.822 514.375 349.528 513.015 348.942C511.681 348.355 510.615 347.408 509.815 346.102C509.041 344.795 508.655 343.062 508.655 340.902V329.262C508.655 327.102 509.041 325.368 509.815 324.062C510.615 322.755 511.681 321.808 513.015 321.222C514.375 320.635 515.908 320.342 517.615 320.342C519.295 320.342 520.815 320.635 522.175 321.222C523.535 321.808 524.615 322.755 525.415 324.062C526.215 325.368 526.615 327.102 526.615 329.262V340.902C526.615 343.062 526.215 344.795 525.415 346.102C524.615 347.408 523.535 348.355 522.175 348.942C520.815 349.528 519.295 349.822 517.615 349.822ZM517.615 346.062C519.081 346.062 520.241 345.648 521.095 344.822C521.948 343.968 522.375 342.662 522.375 340.902V329.262C522.375 327.502 521.948 326.208 521.095 325.382C520.268 324.528 519.108 324.102 517.615 324.102C516.121 324.102 514.948 324.528 514.095 325.382C513.268 326.208 512.855 327.502 512.855 329.262V340.902C512.855 342.662 513.268 343.968 514.095 344.822C514.948 345.648 516.121 346.062 517.615 346.062ZM533.711 349.582C533.178 349.582 532.684 349.462 532.231 349.222C531.804 348.982 531.591 348.635 531.591 348.182V322.462C531.591 321.662 531.804 321.115 532.231 320.822C532.684 320.502 533.178 320.342 533.711 320.342C534.218 320.342 534.658 320.422 535.031 320.582C535.404 320.715 535.751 320.955 536.071 321.302C536.391 321.648 536.724 322.128 537.071 322.742L542.671 333.342L548.351 322.742C548.698 322.128 549.018 321.648 549.311 321.302C549.631 320.955 549.978 320.715 550.351 320.582C550.724 320.422 551.164 320.342 551.671 320.342C552.231 320.342 552.724 320.502 553.151 320.822C553.578 321.115 553.791 321.662 553.791 322.462V348.182C553.791 348.635 553.564 348.982 553.111 349.222C552.684 349.462 552.204 349.582 551.671 349.582C551.138 349.582 550.644 349.462 550.191 349.222C549.764 348.982 549.551 348.635 549.551 348.182V328.982L544.191 338.902C543.978 339.248 543.738 339.502 543.471 339.662C543.204 339.795 542.924 339.862 542.631 339.862C542.391 339.862 542.138 339.795 541.871 339.662C541.604 339.528 541.378 339.275 541.191 338.902L535.831 328.742V348.182C535.831 348.635 535.604 348.982 535.151 349.222C534.724 349.462 534.244 349.582 533.711 349.582ZM574.54 349.582C574.006 349.582 573.513 349.462 573.06 349.222C572.633 348.982 572.42 348.635 572.42 348.182V324.222H566.22C565.793 324.222 565.46 324.022 565.22 323.622C564.98 323.222 564.86 322.768 564.86 322.262C564.86 321.782 564.966 321.342 565.18 320.942C565.393 320.542 565.74 320.342 566.22 320.342H582.82C583.326 320.342 583.686 320.542 583.9 320.942C584.113 321.342 584.22 321.768 584.22 322.222C584.22 322.755 584.1 323.222 583.86 323.622C583.646 324.022 583.3 324.222 582.82 324.222H576.66V348.182C576.66 348.635 576.433 348.982 575.98 349.222C575.553 349.462 575.073 349.582 574.54 349.582ZM589.414 349.582C588.881 349.582 588.388 349.462 587.934 349.222C587.508 348.982 587.294 348.635 587.294 348.182V321.702C587.294 321.222 587.508 320.875 587.934 320.662C588.388 320.448 588.881 320.342 589.414 320.342C589.948 320.342 590.428 320.448 590.854 320.662C591.308 320.875 591.534 321.222 591.534 321.702V332.742H601.494V321.702C601.494 321.222 601.708 320.875 602.134 320.662C602.588 320.448 603.081 320.342 603.614 320.342C604.148 320.342 604.628 320.448 605.054 320.662C605.508 320.875 605.734 321.222 605.734 321.702V348.182C605.734 348.635 605.508 348.982 605.054 349.222C604.628 349.462 604.148 349.582 603.614 349.582C603.081 349.582 602.588 349.462 602.134 349.222C601.708 348.982 601.494 348.635 601.494 348.182V336.102H591.534V348.182C591.534 348.635 591.308 348.982 590.854 349.222C590.428 349.462 589.948 349.582 589.414 349.582ZM612.885 349.582C612.432 349.582 612.005 349.462 611.605 349.222C611.205 348.982 611.005 348.635 611.005 348.182V321.742C611.005 321.288 611.205 320.942 611.605 320.702C612.005 320.462 612.432 320.342 612.885 320.342H627.125C627.632 320.342 627.992 320.542 628.205 320.942C628.418 321.342 628.525 321.755 628.525 322.182C628.525 322.688 628.405 323.142 628.165 323.542C627.925 323.915 627.578 324.102 627.125 324.102H615.245V333.262H621.405C621.858 333.262 622.205 333.435 622.445 333.782C622.685 334.128 622.805 334.528 622.805 334.982C622.805 335.355 622.698 335.728 622.485 336.102C622.272 336.448 621.912 336.622 621.405 336.622H615.245V345.822H627.125C627.578 345.822 627.925 346.008 628.165 346.382C628.405 346.755 628.525 347.208 628.525 347.742C628.525 348.168 628.418 348.582 628.205 348.982C627.992 349.382 627.632 349.582 627.125 349.582H612.885ZM642.031 349.582C641.498 349.582 641.005 349.462 640.551 349.222C640.125 348.982 639.911 348.635 639.911 348.182V321.702C639.911 321.222 640.125 320.875 640.551 320.662C641.005 320.448 641.498 320.342 642.031 320.342C642.565 320.342 643.045 320.448 643.471 320.662C643.925 320.875 644.151 321.222 644.151 321.702V348.182C644.151 348.635 643.925 348.982 643.471 349.222C643.045 349.462 642.565 349.582 642.031 349.582ZM658.003 349.822C656.403 349.822 654.923 349.528 653.563 348.942C652.229 348.355 651.163 347.408 650.363 346.102C649.563 344.795 649.163 343.062 649.163 340.902V329.262C649.163 327.102 649.563 325.368 650.363 324.062C651.163 322.755 652.243 321.808 653.603 321.222C654.963 320.635 656.443 320.342 658.043 320.342C659.883 320.342 661.469 320.662 662.803 321.302C664.163 321.915 665.216 322.768 665.963 323.862C666.736 324.928 667.123 326.168 667.123 327.582C667.123 328.488 666.949 329.088 666.603 329.382C666.256 329.648 665.723 329.782 665.003 329.782C664.363 329.782 663.856 329.675 663.483 329.462C663.109 329.222 662.909 328.862 662.883 328.382C662.856 328.035 662.789 327.622 662.683 327.142C662.576 326.662 662.363 326.195 662.043 325.742C661.749 325.262 661.296 324.875 660.683 324.582C660.069 324.262 659.229 324.102 658.163 324.102C656.616 324.102 655.429 324.528 654.603 325.382C653.776 326.208 653.363 327.502 653.363 329.262V340.902C653.363 342.662 653.776 343.968 654.603 344.822C655.456 345.648 656.683 346.062 658.283 346.062C659.296 346.062 660.096 345.915 660.683 345.622C661.296 345.302 661.749 344.915 662.043 344.462C662.336 343.982 662.536 343.488 662.643 342.982C662.749 342.448 662.829 341.968 662.883 341.542C662.909 341.035 663.109 340.675 663.483 340.462C663.883 340.248 664.376 340.142 664.963 340.142C665.709 340.142 666.256 340.288 666.603 340.582C666.949 340.875 667.123 341.462 667.123 342.342C667.123 343.782 666.736 345.075 665.963 346.222C665.216 347.342 664.163 348.222 662.803 348.862C661.443 349.502 659.843 349.822 658.003 349.822ZM672.963 349.582C672.51 349.582 672.083 349.462 671.683 349.222C671.283 348.982 671.083 348.635 671.083 348.182V321.742C671.083 321.288 671.283 320.942 671.683 320.702C672.083 320.462 672.51 320.342 672.963 320.342H687.203C687.71 320.342 688.07 320.542 688.283 320.942C688.497 321.342 688.603 321.755 688.603 322.182C688.603 322.688 688.483 323.142 688.243 323.542C688.003 323.915 687.657 324.102 687.203 324.102H675.323V333.262H681.483C681.937 333.262 682.283 333.435 682.523 333.782C682.763 334.128 682.883 334.528 682.883 334.982C682.883 335.355 682.777 335.728 682.563 336.102C682.35 336.448 681.99 336.622 681.483 336.622H675.323V345.822H687.203C687.657 345.822 688.003 346.008 688.243 346.382C688.483 346.755 688.603 347.208 688.603 347.742C688.603 348.168 688.497 348.582 688.283 348.982C688.07 349.382 687.71 349.582 687.203 349.582H672.963ZM707.469 349.582C706.936 349.582 706.443 349.462 705.989 349.222C705.563 348.982 705.349 348.635 705.349 348.182V324.222H699.149C698.723 324.222 698.389 324.022 698.149 323.622C697.909 323.222 697.789 322.768 697.789 322.262C697.789 321.782 697.896 321.342 698.109 320.942C698.323 320.542 698.669 320.342 699.149 320.342H715.749C716.256 320.342 716.616 320.542 716.829 320.942C717.043 321.342 717.149 321.768 717.149 322.222C717.149 322.755 717.029 323.222 716.789 323.622C716.576 324.022 716.229 324.222 715.749 324.222H709.589V348.182C709.589 348.635 709.363 348.982 708.909 349.222C708.483 349.462 708.003 349.582 707.469 349.582ZM728.24 349.822C726.533 349.822 725 349.528 723.64 348.942C722.306 348.355 721.24 347.408 720.44 346.102C719.666 344.795 719.28 343.062 719.28 340.902V329.262C719.28 327.102 719.666 325.368 720.44 324.062C721.24 322.755 722.306 321.808 723.64 321.222C725 320.635 726.533 320.342 728.24 320.342C729.92 320.342 731.44 320.635 732.8 321.222C734.16 321.808 735.24 322.755 736.04 324.062C736.84 325.368 737.24 327.102 737.24 329.262V340.902C737.24 343.062 736.84 344.795 736.04 346.102C735.24 347.408 734.16 348.355 732.8 348.942C731.44 349.528 729.92 349.822 728.24 349.822ZM728.24 346.062C729.706 346.062 730.866 345.648 731.72 344.822C732.573 343.968 733 342.662 733 340.902V329.262C733 327.502 732.573 326.208 731.72 325.382C730.893 324.528 729.733 324.102 728.24 324.102C726.746 324.102 725.573 324.528 724.72 325.382C723.893 326.208 723.48 327.502 723.48 329.262V340.902C723.48 342.662 723.893 343.968 724.72 344.822C725.573 345.648 726.746 346.062 728.24 346.062ZM757.704 349.582C757.171 349.582 756.677 349.462 756.224 349.222C755.797 348.982 755.584 348.635 755.584 348.182V324.222H749.384C748.957 324.222 748.624 324.022 748.384 323.622C748.144 323.222 748.024 322.768 748.024 322.262C748.024 321.782 748.131 321.342 748.344 320.942C748.557 320.542 748.904 320.342 749.384 320.342H765.984C766.491 320.342 766.851 320.542 767.064 320.942C767.277 321.342 767.384 321.768 767.384 322.222C767.384 322.755 767.264 323.222 767.024 323.622C766.811 324.022 766.464 324.222 765.984 324.222H759.824V348.182C759.824 348.635 759.597 348.982 759.144 349.222C758.717 349.462 758.237 349.582 757.704 349.582ZM772.578 349.582C772.045 349.582 771.552 349.462 771.098 349.222C770.672 348.982 770.458 348.635 770.458 348.182V321.702C770.458 321.222 770.672 320.875 771.098 320.662C771.552 320.448 772.045 320.342 772.578 320.342C773.112 320.342 773.592 320.448 774.018 320.662C774.472 320.875 774.698 321.222 774.698 321.702V332.742H784.658V321.702C784.658 321.222 784.872 320.875 785.298 320.662C785.752 320.448 786.245 320.342 786.778 320.342C787.312 320.342 787.792 320.448 788.218 320.662C788.672 320.875 788.898 321.222 788.898 321.702V348.182C788.898 348.635 788.672 348.982 788.218 349.222C787.792 349.462 787.312 349.582 786.778 349.582C786.245 349.582 785.752 349.462 785.298 349.222C784.872 348.982 784.658 348.635 784.658 348.182V336.102H774.698V348.182C774.698 348.635 774.472 348.982 774.018 349.222C773.592 349.462 773.112 349.582 772.578 349.582ZM796.049 349.582C795.596 349.582 795.169 349.462 794.769 349.222C794.369 348.982 794.169 348.635 794.169 348.182V321.742C794.169 321.288 794.369 320.942 794.769 320.702C795.169 320.462 795.596 320.342 796.049 320.342H810.289C810.796 320.342 811.156 320.542 811.369 320.942C811.583 321.342 811.689 321.755 811.689 322.182C811.689 322.688 811.569 323.142 811.329 323.542C811.089 323.915 810.743 324.102 810.289 324.102H798.409V333.262H804.569C805.023 333.262 805.369 333.435 805.609 333.782C805.849 334.128 805.969 334.528 805.969 334.982C805.969 335.355 805.863 335.728 805.649 336.102C805.436 336.448 805.076 336.622 804.569 336.622H798.409V345.822H810.289C810.743 345.822 811.089 346.008 811.329 346.382C811.569 346.755 811.689 347.208 811.689 347.742C811.689 348.168 811.583 348.582 811.369 348.982C811.156 349.382 810.796 349.582 810.289 349.582H796.049ZM824.955 349.582C824.395 349.582 823.942 349.448 823.595 349.182C823.249 348.915 823.075 348.595 823.075 348.222V321.702C823.075 321.328 823.249 321.008 823.595 320.742C823.942 320.475 824.395 320.342 824.955 320.342H832.035C833.715 320.342 835.235 320.635 836.595 321.222C837.982 321.808 839.062 322.755 839.835 324.062C840.635 325.368 841.035 327.102 841.035 329.262V340.662C841.035 342.822 840.635 344.555 839.835 345.862C839.062 347.168 837.982 348.115 836.595 348.702C835.235 349.288 833.715 349.582 832.035 349.582H824.955ZM827.315 345.822H832.035C833.529 345.822 834.689 345.408 835.515 344.582C836.369 343.728 836.795 342.422 836.795 340.662V329.262C836.795 327.502 836.369 326.208 835.515 325.382C834.689 324.528 833.529 324.102 832.035 324.102H827.315V345.822ZM847.885 349.582C847.432 349.582 847.005 349.462 846.605 349.222C846.205 348.982 846.005 348.635 846.005 348.182V321.742C846.005 321.288 846.205 320.942 846.605 320.702C847.005 320.462 847.432 320.342 847.885 320.342H862.125C862.632 320.342 862.992 320.542 863.205 320.942C863.418 321.342 863.525 321.755 863.525 322.182C863.525 322.688 863.405 323.142 863.165 323.542C862.925 323.915 862.578 324.102 862.125 324.102H850.245V333.262H856.405C856.858 333.262 857.205 333.435 857.445 333.782C857.685 334.128 857.805 334.528 857.805 334.982C857.805 335.355 857.698 335.728 857.485 336.102C857.272 336.448 856.912 336.622 856.405 336.622H850.245V345.822H862.125C862.578 345.822 862.925 346.008 863.165 346.382C863.405 346.755 863.525 347.208 863.525 347.742C863.525 348.168 863.418 348.582 863.205 348.982C862.992 349.382 862.632 349.582 862.125 349.582H847.885ZM874.264 349.902C872.53 349.902 870.997 349.648 869.664 349.142C868.33 348.635 867.29 348.022 866.544 347.302C865.797 346.555 865.424 345.848 865.424 345.182C865.424 344.862 865.504 344.528 865.664 344.182C865.85 343.835 866.077 343.542 866.344 343.302C866.637 343.035 866.944 342.902 867.264 342.902C867.637 342.902 867.984 343.062 868.304 343.382C868.65 343.675 869.064 344.035 869.544 344.462C870.024 344.888 870.624 345.262 871.344 345.582C872.064 345.902 872.984 346.062 874.104 346.062C875.064 346.062 875.917 345.915 876.664 345.622C877.437 345.302 878.037 344.835 878.464 344.222C878.917 343.582 879.144 342.782 879.144 341.822C879.144 340.808 878.904 339.968 878.424 339.302C877.97 338.635 877.344 338.075 876.544 337.622C875.77 337.168 874.93 336.755 874.024 336.382C873.117 336.008 872.197 335.608 871.264 335.182C870.33 334.755 869.477 334.248 868.704 333.662C867.93 333.048 867.304 332.288 866.824 331.382C866.37 330.448 866.144 329.288 866.144 327.902C866.144 326.435 866.41 325.208 866.944 324.222C867.504 323.235 868.237 322.448 869.144 321.862C870.05 321.275 871.05 320.862 872.144 320.622C873.237 320.355 874.317 320.222 875.384 320.222C876.05 320.222 876.784 320.275 877.584 320.382C878.41 320.462 879.21 320.622 879.984 320.862C880.757 321.075 881.397 321.368 881.904 321.742C882.41 322.115 882.664 322.568 882.664 323.102C882.664 323.368 882.597 323.688 882.464 324.062C882.33 324.408 882.13 324.715 881.864 324.982C881.624 325.248 881.304 325.382 880.904 325.382C880.557 325.382 880.17 325.262 879.744 325.022C879.317 324.755 878.757 324.502 878.064 324.262C877.397 323.995 876.504 323.862 875.384 323.862C874.424 323.862 873.557 323.995 872.784 324.262C872.037 324.528 871.45 324.928 871.024 325.462C870.597 325.968 870.384 326.648 870.384 327.502C870.384 328.355 870.61 329.062 871.064 329.622C871.544 330.155 872.17 330.622 872.944 331.022C873.717 331.395 874.557 331.755 875.464 332.102C876.397 332.448 877.317 332.862 878.224 333.342C879.157 333.795 880.01 334.355 880.784 335.022C881.584 335.688 882.21 336.542 882.664 337.582C883.144 338.595 883.384 339.862 883.384 341.382C883.384 343.302 882.984 344.902 882.184 346.182C881.41 347.435 880.33 348.368 878.944 348.982C877.584 349.595 876.024 349.902 874.264 349.902ZM889.213 349.582C888.76 349.582 888.333 349.462 887.933 349.222C887.533 348.982 887.333 348.635 887.333 348.182V321.742C887.333 321.288 887.533 320.942 887.933 320.702C888.333 320.462 888.76 320.342 889.213 320.342H903.453C903.96 320.342 904.32 320.542 904.533 320.942C904.747 321.342 904.853 321.755 904.853 322.182C904.853 322.688 904.733 323.142 904.493 323.542C904.253 323.915 903.907 324.102 903.453 324.102H891.573V333.262H897.733C898.187 333.262 898.533 333.435 898.773 333.782C899.013 334.128 899.133 334.528 899.133 334.982C899.133 335.355 899.027 335.728 898.813 336.102C898.6 336.448 898.24 336.622 897.733 336.622H891.573V345.822H903.453C903.907 345.822 904.253 346.008 904.493 346.382C904.733 346.755 904.853 347.208 904.853 347.742C904.853 348.168 904.747 348.582 904.533 348.982C904.32 349.382 903.96 349.582 903.453 349.582H889.213ZM923.992 349.702C923.645 349.702 923.325 349.582 923.032 349.342C922.765 349.102 922.538 348.808 922.352 348.462L916.472 337.022H912.472V348.182C912.472 348.635 912.245 348.982 911.792 349.222C911.365 349.462 910.885 349.582 910.352 349.582C909.818 349.582 909.325 349.462 908.872 349.222C908.445 348.982 908.232 348.635 908.232 348.182V321.702C908.232 321.328 908.352 321.008 908.592 320.742C908.858 320.475 909.218 320.342 909.672 320.342H917.272C918.952 320.342 920.485 320.595 921.872 321.102C923.258 321.582 924.365 322.422 925.192 323.622C926.018 324.795 926.432 326.422 926.432 328.502C926.432 330.102 926.178 331.435 925.672 332.502C925.192 333.568 924.525 334.422 923.672 335.062C922.845 335.675 921.898 336.128 920.832 336.422L926.432 346.942C926.485 347.022 926.525 347.128 926.552 347.262C926.578 347.368 926.592 347.462 926.592 347.542C926.592 347.888 926.458 348.235 926.192 348.582C925.925 348.902 925.592 349.168 925.192 349.382C924.818 349.595 924.418 349.702 923.992 349.702ZM912.472 333.622H917.272C918.765 333.622 919.952 333.262 920.832 332.542C921.738 331.822 922.192 330.595 922.192 328.862C922.192 327.128 921.738 325.902 920.832 325.182C919.952 324.462 918.765 324.102 917.272 324.102H912.472V333.622ZM937.47 349.582C936.936 349.582 936.443 349.462 935.99 349.222C935.563 348.982 935.35 348.635 935.35 348.182V324.222H929.15C928.723 324.222 928.39 324.022 928.15 323.622C927.91 323.222 927.79 322.768 927.79 322.262C927.79 321.782 927.896 321.342 928.11 320.942C928.323 320.542 928.67 320.342 929.15 320.342H945.75C946.256 320.342 946.616 320.542 946.83 320.942C947.043 321.342 947.15 321.768 947.15 322.222C947.15 322.755 947.03 323.222 946.79 323.622C946.576 324.022 946.23 324.222 945.75 324.222H939.59V348.182C939.59 348.635 939.363 348.982 938.91 349.222C938.483 349.462 938.003 349.582 937.47 349.582Z" fill="black" fill-opacity="0.25"/>
<defs>
<filter id="filter0_b_6_52" x="473.967" y="192.223" width="747.157" height="97.16" filterUnits="userSpaceOnUse" color-interpolation-filters="sRGB">
<feFlood flood-opacity="0" result="BackgroundImageFix"/>
<feGaussianBlur in="BackgroundImageFix" stdDeviation="2"/>
<feComposite in2="SourceAlpha" operator="in" result="effect1_backgroundBlur_6_52"/>
<feBlend mode="normal" in="SourceGraphic" in2="effect1_backgroundBlur_6_52" result="shape"/>
</filter>
<linearGradient id="paint0_linear_6_52" x1="88.5412" y1="49.2863" x2="88.5412" y2="461.797" gradientUnits="userSpaceOnUse">
<stop offset="0.004" stop-color="#00709E"/>
<stop offset="0.5" stop-color="#00709E"/>
<stop offset="1" stop-color="#00A087"/>
</linearGradient>
<linearGradient id="paint1_linear_6_52" x1="226.067" y1="49.385" x2="226.067" y2="461.959" gradientUnits="userSpaceOnUse">
<stop offset="0.004" stop-color="#BA7530"/>
<stop offset="0.5" stop-color="#F77F00" stop-opacity="0.44"/>
<stop offset="1" stop-color="#FFB777"/>
</linearGradient>
<linearGradient id="paint2_linear_6_52" x1="374.454" y1="49.2968" x2="374.454" y2="461.818" gradientUnits="userSpaceOnUse">
<stop offset="0.004" stop-color="#0054A0"/>
<stop offset="0.5" stop-color="#00709E"/>
<stop offset="1" stop-color="#00A087"/>
</linearGradient>
<linearGradient id="paint3_linear_6_52" x1="226.066" y1="49.3136" x2="226.066" y2="461.761" gradientUnits="userSpaceOnUse">
<stop offset="0.004" stop-color="#0054A0"/>
<stop offset="0.5" stop-color="#00709E"/>
<stop offset="1" stop-color="#B0D8BC"/>
</linearGradient>
</defs>
</svg>
