<svg width="60" height="53" viewBox="0 0 60 53" fill="none" xmlns="http://www.w3.org/2000/svg">
<path fill-rule="evenodd" clip-rule="evenodd" d="M58.0856 31.8931V29.6924H56.1105V31.963H37.6507V34.251C37.6507 39.2812 34.0954 38.8096 29.7197 38.8096H0.609375V52.3982H40.2487C51.1879 52.3982 60 46.7567 60 31.8931H58.0856Z" fill="#0072C5"/>
<path d="M20.4366 6.8291H16.4712V9.09968H20.4366V6.8291Z" fill="#0072C5"/>
<path fill-rule="evenodd" clip-rule="evenodd" d="M30.3429 22.7755V18.2344H20.4217V11.3877H16.4714V22.7755H10.5156V36.4514H30.3429V29.6222H26.3774V27.3341H30.3429V25.0636H26.3774V22.7755H30.3429Z" fill="#0072C5"/>
<path d="M50.6564 9.11725C52.8464 9.11725 54.6218 7.07628 54.6218 4.55862C54.6218 2.04096 52.8464 0 50.6564 0C48.4663 0 46.6909 2.04096 46.6909 4.55862C46.6909 7.07628 48.4663 9.11725 50.6564 9.11725Z" fill="#0072C5"/>
</svg>
